<svg xmlns="http://www.w3.org/2000/svg" xmlns:xlink="http://www.w3.org/1999/xlink" width="842" height="154" viewBox="0 0 842 154">
  <defs>
    <style>
      .cls-1 {
        fill: #0a0a0a;
        fill-rule: evenodd;
        filter: url(#filter);
      }
    </style>
    <filter id="filter" x="31.938" y="26" width="777.593" height="102.156" filterUnits="userSpaceOnUse">
      <feFlood result="flood" flood-color="#fff"/>
      <feComposite result="composite" operator="in" in2="SourceGraphic"/>
      <feBlend result="blend" in2="SourceGraphic"/>
    </filter>
  </defs>
  <path id="bussines" class="cls-1" d="M83.3,126.735q15.179,0,24.827-7.945a24.986,24.986,0,0,0,9.648-20.146,24.567,24.567,0,0,0-4.186-14.116,26.278,26.278,0,0,0-11.988-9.435q12.057-8.087,12.059-21.423,0-11.917-9.009-19.082T80.466,27.424H31.946v99.311H83.3ZM64.293,51.684h8.654q4.113,0,6.242,1.986a6.531,6.531,0,0,1,0,9.647q-2.128,1.988-6.242,1.986H64.293V51.684Zm0,35.752H76.778q4.4,0,6.526,2.128a7.8,7.8,0,0,1,0,10.711q-2.128,2.2-6.526,2.2H64.293V87.436Zm153.646,28.871q12.626-11.844,12.627-31.567V27.424h-31.78V84.173q0,6.67-3.476,10.428t-9.576,3.76q-6.1,0-9.647-3.689t-3.547-10.5V27.424H139.767v58.31q0,19.721,12.13,31.071t32.7,11.349Q205.311,128.153,217.939,116.307Zm74.766-64.481a20,20,0,0,1,8.938,2.341,33.781,33.781,0,0,1,6.313,3.76q1.629,1.42,2.625,2.412l18.585-20.146-1.561-1.419a28.8,28.8,0,0,0-4.823-3.618q-3.265-2.055-7.378-4.114a49.216,49.216,0,0,0-10.214-3.547A52.448,52.448,0,0,0,292.705,26q-16.6,0-26.956,8.583a27.5,27.5,0,0,0-10.357,22.2q0,18.87,22.274,29.368,11.207,5.393,14.755,7.8t3.547,4.54q0,3.692-4.682,3.689a26.253,26.253,0,0,1-11.279-2.98,52,52,0,0,1-8.441-4.753,39.634,39.634,0,0,1-3.547-3.05l-18.3,20,1.561,1.7a42.59,42.59,0,0,0,5.178,4.185,78.687,78.687,0,0,0,8.016,4.966,47.915,47.915,0,0,0,11.421,4.185,59.133,59.133,0,0,0,14.258,1.7q16.882,0,27.807-9.221T328.882,96.09A25,25,0,0,0,326.4,85.024a27.163,27.163,0,0,0-7.023-8.938,69.115,69.115,0,0,0-8.513-6.242,92.008,92.008,0,0,0-9.221-4.824q-8.23-3.831-10.783-5.817t-2.553-3.973q0-3.4,4.4-3.4h0Zm94.346,0a20,20,0,0,1,8.938,2.341,33.781,33.781,0,0,1,6.313,3.76q1.63,1.42,2.625,2.412l18.585-20.146-1.56-1.419a28.817,28.817,0,0,0-4.824-3.618q-3.265-2.055-7.377-4.114a49.247,49.247,0,0,0-10.215-3.547A52.448,52.448,0,0,0,387.051,26q-16.6,0-26.956,8.583a27.5,27.5,0,0,0-10.356,22.2q0,18.87,22.274,29.368,11.205,5.393,14.754,7.8t3.547,4.54q0,3.692-4.682,3.689a26.249,26.249,0,0,1-11.278-2.98,51.974,51.974,0,0,1-8.442-4.753,39.778,39.778,0,0,1-3.547-3.05l-18.3,20,1.56,1.7A42.615,42.615,0,0,0,350.8,117.3a78.556,78.556,0,0,0,8.015,4.966,47.932,47.932,0,0,0,11.421,4.185,59.139,59.139,0,0,0,14.258,1.7q16.882,0,27.807-9.221T423.229,96.09a24.99,24.99,0,0,0-2.483-11.066,27.163,27.163,0,0,0-7.023-8.938,69.111,69.111,0,0,0-8.512-6.242,92.031,92.031,0,0,0-9.222-4.824q-8.229-3.831-10.782-5.817t-2.554-3.973q0-3.4,4.4-3.4h0Zm61.714,74.909h33.2V27.424h-33.2v99.311Zm125.7,0h31.5V27.424h-31.5V75.8l-30.5-48.379H510.9v99.311h31.5V76.086Zm138.609,0V99.353H666.679V88.571h37.88V65.3h-37.88v-10.5h44.974V27.424H634.332v99.311h78.74Zm60.011-74.909a20,20,0,0,1,8.938,2.341,33.781,33.781,0,0,1,6.313,3.76q1.631,1.42,2.625,2.412l18.585-20.146-1.56-1.419a28.817,28.817,0,0,0-4.824-3.618q-3.266-2.055-7.377-4.114a49.247,49.247,0,0,0-10.215-3.547A52.448,52.448,0,0,0,773.083,26q-16.6,0-26.956,8.583a27.5,27.5,0,0,0-10.357,22.2q0,18.87,22.274,29.368,11.207,5.393,14.755,7.8t3.547,4.54q0,3.692-4.682,3.689a26.256,26.256,0,0,1-11.279-2.98,52,52,0,0,1-8.441-4.753,39.634,39.634,0,0,1-3.547-3.05l-18.3,20,1.56,1.7a42.67,42.67,0,0,0,5.178,4.185,78.687,78.687,0,0,0,8.016,4.966,47.915,47.915,0,0,0,11.421,4.185,59.139,59.139,0,0,0,14.258,1.7q16.882,0,27.807-9.221T809.261,96.09a24.99,24.99,0,0,0-2.483-11.066,27.163,27.163,0,0,0-7.023-8.938,69.111,69.111,0,0,0-8.512-6.242,92.031,92.031,0,0,0-9.222-4.824q-8.23-3.831-10.782-5.817t-2.554-3.973q0-3.4,4.4-3.4h0Z"/>
</svg>
