<svg xmlns="http://www.w3.org/2000/svg" xmlns:xlink="http://www.w3.org/1999/xlink" width="842" height="154" viewBox="0 0 842 154">
  <defs>
    <style>
      .cls-1 {
        fill: #0a0a0a;
        fill-rule: evenodd;
        filter: url(#filter);
      }
    </style>
    <filter id="filter" x="7.063" y="40.75" width="827.343" height="72.906" filterUnits="userSpaceOnUse">
      <feFlood result="flood" flood-color="#fff"/>
      <feComposite result="composite" operator="in" in2="SourceGraphic"/>
      <feBlend result="blend" in2="SourceGraphic"/>
    </filter>
  </defs>
  <path id="management" class="cls-1" d="M39.977,103.013H52.126L62.857,80.235v32.4H85.028V41.764H62.553l-15.894,32.9-15.894-32.9H7.074v70.867H29.246v-32.4Zm83.32,9.618,2.936-9.719h21.159l2.935,9.719h25.614l-26.93-70.867H125.929L98.9,112.631h24.4Zm13.566-45.254L142.33,85.6H131.4Zm98.3,45.254H257.64V41.764H235.165V76.286L213.4,41.764H189.81v70.867h22.475V76.489Zm60.742,0,2.936-9.719H320l2.936,9.719h25.614l-26.93-70.867H298.54l-27.031,70.867h24.4Zm13.566-45.254L314.94,85.6H304.007Zm110.3,35.991Q429.34,93.093,429.34,77.7a38.183,38.183,0,0,0-.506-6.277H393V86.613h13.161q-2.939,6.682-11.946,6.682a13.56,13.56,0,0,1-10.529-4.455,16.062,16.062,0,0,1-4.05-11.237,15.417,15.417,0,0,1,4.1-11.086,13.965,13.965,0,0,1,10.58-4.3,16.163,16.163,0,0,1,7.036,1.62,18.024,18.024,0,0,1,4.4,2.632q1.011,1.013,1.62,1.62l15.692-15.692-1.013-1.215a15.644,15.644,0,0,0-3.189-2.885A51.707,51.707,0,0,0,413.5,44.9a32.646,32.646,0,0,0-8.15-2.936,45.868,45.868,0,0,0-10.732-1.215q-16.1,0-27.081,10.731A35.137,35.137,0,0,0,356.55,77.6q0,15.39,10.63,25.715t26.727,10.326Q410.206,113.643,419.773,103.368Zm83.572,9.263V93.092H470.24V85.4h27.031v-16.6H470.24V61.3h32.093V41.764H447.158v70.867h56.187Zm50.619-9.618h12.149l10.731-22.779v32.4h22.172V41.764H576.541l-15.9,32.9-15.894-32.9h-23.69v70.867h22.171v-32.4Zm121.487,9.618V93.092H642.346V85.4h27.031v-16.6H642.346V61.3h32.093V41.764H619.263v70.867h56.188Zm63.071,0H761V41.764H738.522V76.286L716.756,41.764H693.167v70.867h22.475V76.489ZM834.4,61.809V41.764H775.676V61.809h17.818v50.822h23.083V61.809H834.4Z"/>
</svg>
