<svg xmlns="http://www.w3.org/2000/svg" width="3508" height="642" viewBox="0 0 3508 642">
  <defs>
    <style>
      .cls-1 {
        fill: #fff;
        fill-rule: evenodd;
      }
    </style>
  </defs>
  <path id="production_" data-name="production " class="cls-1" d="M316.725,477V385.6h52.163q54.837,0,89.389-31.208t34.552-80.25q0-49.488-33.214-79.359t-88.052-29.87H232.017V477h84.708Zm0-240.75h46.813q20.063,0,32.323,11.146t12.26,28.979q0,17.837-12.26,28.979T363.538,316.5H316.725V236.25ZM539.636,477h84.708V376.687h30.317L715.74,477h98.084L740.707,364.65q28.087-13.375,43.915-37.9t15.827-57.067q0-47.25-32.323-76.014T683.64,164.917h-144V477Zm133.75-240.75q20.063,0,31.208,10.254t11.146,27.642q0,17.387-11.146,27.641t-31.208,10.255H624.344V236.25h49.042ZM1001.96,481.458q70.44,0,118.37-47.035t47.93-114.8q0-67.764-46.59-113.465t-117.03-45.7q-70.451,0-118.37,47.036T838.343,322.3q0,67.773,46.59,113.464T1001.96,481.458Zm1.34-242.979q34.77,0,57.51,23.629t22.74,58.85q0,35.224-22.74,58.85-22.725,23.637-57.51,23.629t-57.511-23.629q-22.737-23.625-22.737-58.85t22.737-58.85Q968.526,238.483,1003.3,238.479ZM1331.88,477q75.33,0,125.28-45.252,49.92-45.245,49.93-112.127t-48.6-110.79q-48.6-43.908-123.94-43.914H1217.3V477h114.58Zm-29.87-238.521h33.43q37.89,0,62.42,23.183,24.51,23.187,24.52,59.3t-24.52,59.3q-24.525,23.187-62.42,23.183h-33.43V238.479Zm526.08,107.892V164.917h-83.37V345.479q0,26.75-14.49,42.354-14.505,15.612-39.01,15.6-24.525,0-39.01-15.6-14.505-15.6-14.49-42.354V164.917h-86.05V349.046q0,61.086,37.23,96.746,37.215,35.673,99.64,35.666t100.98-37q38.565-37,38.57-98.083h0Zm255.68,128.623q22.5-6.457,35.89-14.044a132.615,132.615,0,0,0,24.52-17.833q11.13-10.251,14.27-14.267a69.806,69.806,0,0,0,4.45-6.242l-57.95-51.271-6.69,8.025q-7.14,8.025-24.08,16.05a84.327,84.327,0,0,1-36.56,8.025q-34.77,0-57.51-23.629t-22.74-58.85q0-35.214,22.74-58.85t57.51-23.629a80.442,80.442,0,0,1,34.78,7.579q16.05,7.587,20.51,12.261a79.577,79.577,0,0,1,6.69,7.8l61.07-52.609-4.45-5.795q-4.02-5.351-13.82-12.93a217.989,217.989,0,0,0-23.19-15.381q-13.365-7.794-34.77-13.375a180,180,0,0,0-45.48-5.573q-70.44,0-118.37,47.036t-47.92,114.8q0,67.773,46.59,113.464t117.03,45.7A171.429,171.429,0,0,0,2083.77,474.994ZM2430.4,238.479V164.917H2176.28v73.562h84.71V477h84.7V238.479h84.71ZM2468.3,477h86.93V164.917H2468.3V477Zm301.82,4.458q70.44,0,118.37-47.035t47.93-114.8q0-67.764-46.59-113.465t-117.03-45.7q-70.455,0-118.37,47.036-47.94,47.041-47.93,114.8t46.59,113.464Q2699.665,481.465,2770.12,481.458Zm1.34-242.979q34.77,0,57.51,23.629t22.74,58.85q0,35.224-22.74,58.85t-57.51,23.629q-34.785,0-57.51-23.629t-22.74-58.85q0-35.214,22.74-58.85T2771.46,238.479ZM3192.77,477h82.48V164.917h-82.48V343.7L3072.39,164.917h-86.94V477h82.48V291.979Z"/>
</svg>
