<svg id="Слой_1" data-name="Слой 1" xmlns="http://www.w3.org/2000/svg" viewBox="0 0 3438.03 490.56"><defs><style>.cls-1{fill:#424242;}.cls-2{fill:#01acff;}.cls-3{fill:#434343;}.cls-4{fill:#444;}.cls-5{fill:#feffff;}</style></defs><path class="cls-1" d="M3407.73,1565.6c-3.84,0-7.67-.12-11.51-.12h-48c-1.44,0-2.88,0-4.31-.1a1.55,1.55,0,0,1-1.58-1.49c-.11-1.27-.07-2.56-.07-3.84v-55.17c0-1.27,0-2.56-.08-3.83a1.77,1.77,0,0,0-1.79-1.77h-.08c-1.12-.06-2.24-.06-3.36-.06h-47.51c-5.28,0-5.3,0-5.3,5.24v56.13c0,5,.13,4.9-5.07,4.9h-56.15c-5.61,0-5.27.3-5.27-5.13V1381.42c0-4.87,0-4.89,4.59-4.89h57.59c4.24,0,4.28,0,4.28,4.28V1436c0,6.18-.44,5.73,5.67,5.73h47c1.28,0,2.56,0,3.84-.09a1.58,1.58,0,0,0,1.51-1.56c.09-1.27.08-2.56.08-3.83V1382c0-5.67-.24-5.5,5.48-5.49l60,.07Z" transform="translate(25.48 -1225.51)"/><path class="cls-2" d="M366.34,1695c-1.11-.06-2.22-.17-3.34-.17H60.83c-3.19,0-6.38.1-9.57.15-11.86-1.13-23.27-3.9-33.73-9.75-23.08-12.9-37.25-32.31-42.12-58.37-.35-1.88-.59-3.77-.89-5.66V1299.37a82.34,82.34,0,0,1,57.38-70.25,88.4,88.4,0,0,1,19.2-3.61c1,.07,1.9.19,2.86.19H358.83c2.87,0,5.74-.09,8.61-.14,26.63,2.48,47.66,14.63,62.74,36.73a78,78,0,0,1,13,35.18,91.9,91.9,0,0,1,.69,11v303.66c0,19.57-6,37.15-18.32,52.33-13.49,16.54-30.82,26.53-52.08,29.66C371.1,1694.44,368.73,1694.72,366.34,1695ZM326,1564.43a10.45,10.45,0,0,0,1.35-1.31,167.76,167.76,0,0,0,33.06-94.46,199.49,199.49,0,0,0-2.74-40.54,186.75,186.75,0,0,0-12.54-43.64c-9.05-20.89-22-39-39.71-53.33-28.51-23.14-61.47-34.82-97.88-37.14-20.37-1.3-40.55.68-60.57,4.53a187.68,187.68,0,0,0-83.48,38.82c-1.1.9-2.38,1.65-3,3.08a11.8,11.8,0,0,0,2.15,3.69l39.14,56.31c.55.78,1,1.61,1.67,2.33a1.59,1.59,0,0,0,2.16.37c1.35-.84,2.69-1.72,4-2.61,4.53-3,8.93-6.21,13.58-9,26.8-16.19,55.6-23,86.81-18a76.69,76.69,0,0,1,24.46,8.1,65.29,65.29,0,0,1,26.92,27.22,54.45,54.45,0,0,0,22.9,22.51c15.94,8.51,31.36,17.92,47,27,.78.45,1.85.69,2.08,2-.94,1.21-2.47,1.75-3.8,2.53-17.77,10.46-35.51,21-53.36,31.29a31.71,31.71,0,0,0-12.58,13.35,70.55,70.55,0,0,1-40.73,35.14,109.17,109.17,0,0,1-53.46,4.28,113.29,113.29,0,0,1-36.89-13c-7.44-4.08-14.55-8.69-21.73-13.18-2.3-1.43-4.61-2.84-6.79-4.19-1.84.8-2.51,2.34-3.42,3.6q-20.1,27.78-40.16,55.59c-.66.91-1.3,1.83-2,2.73a1.4,1.4,0,0,0,.11,2l.19.14c2.14,1.67,4.34,3.27,6.5,4.92a206.49,206.49,0,0,0,30.25,19.36c26.72,13.87,55.2,20.79,85.2,21.75a231.63,231.63,0,0,0,31.6-1.44,201.19,201.19,0,0,0,32.5-5.88c28.15-7.67,52.36-21.85,72.13-43.43,1.28-1.4,2.78-2.66,3.57-4.46a27,27,0,0,0,5.51-7Zm-23.51-104.31c-1.64-1-2.42-1.58-3.23-2l-86.43-49.66c-.82-.48-1.67-.92-2.54-1.33a1.12,1.12,0,0,0-1.51.47,1.25,1.25,0,0,0-.13.53c-.06,1.6,0,3.2-.09,4.79-.23,4,.58,8-.45,11.88-4,1.33-8.19.57-12.27.58-28.61.08-57.22,0-85.83.05h-4.31a1.79,1.79,0,0,0-1.91,1.66.19.19,0,0,0,0,.08,43.76,43.76,0,0,0-.34,5.24v54.17c0,6.79-.82,6.09,6.16,6.1h93c1.44,0,2.88,0,4.31.07a1.57,1.57,0,0,1,1.54,1.53c.1,1.11.11,2.23.11,3.35v12.94c0,.9-.28,1.9.54,2.64.72.3,1.25-.12,1.79-.43Z" transform="translate(25.48 -1225.51)"/><path class="cls-3" d="M1106.47,1498.62V1382.09c0-6.6-.37-6,5.93-6h55.16c5.81,0,5.53-.2,5.51,5.46v14.87a11,11,0,0,0,.19,2.37.68.68,0,0,0,1.1.4,21,21,0,0,0,2-2,100.81,100.81,0,0,1,11.78-11.23,63.46,63.46,0,0,1,33.8-13.48c24-2.26,44.82,4.93,62.49,21.14,10.19,9.34,17.33,20.86,22.26,33.72a112.5,112.5,0,0,1,7.37,39.83,141.53,141.53,0,0,1-1.53,24.85c-3.1,18.65-9.85,35.7-22.39,50.1-11.69,13.44-26.17,22.37-43.74,25.88a78.79,78.79,0,0,1-39.8-1.93,66.62,66.62,0,0,1-26.39-16.06c-1.72-1.67-3.39-3.39-5.13-5a1.93,1.93,0,0,0-1.25-.42c-.58,0-.72.59-.74,1,0,1.43-.06,2.87-.06,4.31v68.58c-.08,2.38-.35,2.69-2.85,2.72-3.84,0-7.68,0-11.51,0h-47.46c-4.75,0-4.75.24-4.75-4.69Q1106.49,1557.61,1106.47,1498.62ZM1249,1471a38.7,38.7,0,0,0-.72-8.59c-1.55-9.81-5.66-18.34-13.11-25-10.63-9.43-22.89-12.36-36.54-7.92-10.64,3.46-18,10.7-22.63,20.77a49,49,0,0,0-3.79,27.63,44.49,44.49,0,0,0,7.9,20.33,37,37,0,0,0,59.72.91c6.38-8.26,9-17.79,9.17-28.13Z" transform="translate(25.48 -1225.51)"/><path class="cls-3" d="M2544.05,1471v88.72c0,6.32.52,5.79-5.54,5.79h-55.65c-4.24,0-4.27,0-4.27-4.2v-83.45c0-1.61.91-3.47-.71-4.89-1.67.6-2.16,2.26-3,3.52q-29.82,42.63-59.6,85.3c-.1.13-.19.26-.28.4-1.35,2.44-3.25,3.42-6.21,3.4-17-.15-33.9-.08-50.85-.08H2356c-2.41-.1-2.65-.34-2.74-2.87V1382.27c0-6.28-.12-5.76,5.69-5.76h56.61c2.87.1,3.13.37,3.22,3.44v82.49c0,1.24-.59,3.17.48,3.56,1.69.63,2.09-1.53,2.83-2.57q26.61-37.59,53.07-75.25c2.3-3.27,4.65-6.5,6.92-9.79a3.9,3.9,0,0,1,3.61-1.89h55.65c2.43.09,2.67.33,2.76,2.84v3.36Z" transform="translate(25.48 -1225.51)"/><path class="cls-1" d="M3056.73,1466.73a4.19,4.19,0,0,0,2.66-2.24l46.15-65.47c4.6-6.53,9.28-13,13.78-19.62a5.92,5.92,0,0,1,5.54-2.88c17.75.1,35.51,0,53.26,0H3180c1.46.12,2,.64,2.12,2,.08,1.11.05,2.24.05,3.36v180.38c-.08,2.89-.25,3.08-2.92,3.17h-59c-3.58-.07-3.74-.18-3.74-3.81q0-41.25-.05-82.5c0-1.91,1-4.08-.85-5.77-1.86.87-2.6,2.73-3.68,4.26l-58,82.94c-4,5.75-2.18,4.85-9.2,4.87-15.83,0-31.67,0-47.5,0h-3.84c-1.59-.08-2-.5-2.14-2-.06-1.11,0-2.23,0-3.35V1378.34a1.78,1.78,0,0,1,1.78-1.78h.08c1-.06,1.92,0,2.88,0h56.13c1,0,1.92,0,2.88.07a1.54,1.54,0,0,1,1.57,1.48c.11,1.43.1,2.87.11,4.31v84.29Z" transform="translate(25.48 -1225.51)"/><path class="cls-1" d="M975.73,1376.21h89.72c6,0,5.75-.33,5.75,5.72v181.35c-.1,1.69-.59,2.12-2.43,2.22h-59.53c-4.22,0-4.42.4-4.42-4.53V1440.1c0-8,.8-6.87-6.87-6.9H949c-1.79.08-2.14.45-2.21,2.38-.06,1.44,0,2.88,0,4.32v119.89c0,6.23.59,5.68-5.63,5.68H885.51c-5.47,0-5.26.27-5.26-5.18V1379c.1-2.36.41-2.68,2.88-2.77,1.28,0,2.56,0,3.84,0Z" transform="translate(25.48 -1225.51)"/><path class="cls-3" d="M475.73,1470.59v-88.72c0-6.09-.5-5.74,5.66-5.74H537c5.76,0,5.38-.18,5.38,5.59v58.5c.09,2.38.37,2.74,2.88,2.71,8.08-.1,6.17,1.19,10.78-5.51q19.65-28.67,39.32-57.3c2.71-3.93,1.94-4,7.33-4h67.64c1.22,0,2.92-.66,3.58.56.82,1.5-.89,2.52-1.7,3.57q-32.4,42.23-64.88,84.4c-3.35,4.35-3.29,3.57,0,8l66,88.36c.89,1.18,2.9,2.32,1.91,3.94-.67,1.1-2.66.46-4.05.46H604.6c-.8,0-1.61-.07-2.4,0a4,4,0,0,1-4-2.07c-4-5.8-8.06-11.53-12.11-17.28l-30.91-43.92c-.64-.92-1.3-1.82-2-2.72a2.39,2.39,0,0,0-2.06-1c-2.69.07-5.41-.42-8.07.34-1.5,2.34-.73,5-.74,7.42-.07,17.91,0,35.81,0,53.72v3.35c-.08,1.53-.56,2-2,2.13-1.12.07-2.24,0-3.36,0H480.34c-5,0-4.7,0-4.7-4.72Q475.73,1515.68,475.73,1470.59Z" transform="translate(25.48 -1225.51)"/><path class="cls-3" d="M2957.64,1503.41V1560c0,1.28,0,2.56-.07,3.83a1.56,1.56,0,0,1-1.54,1.53c-1,.08-1.91.1-2.87.1h-57.09c-4-.06-4.08-.07-4.11-3.93s0-7.67,0-11.51a6.06,6.06,0,0,0-.15-1.9.78.78,0,0,0-1-.5l-.18.08c-1.25,1-2.45,2-3.64,3.09a72.2,72.2,0,0,1-21.78,13.75,77.92,77.92,0,0,1-31,5.18,75.42,75.42,0,0,1-24.44-4.31c-12.92-4.72-23.24-12.62-29.93-24.86a51.41,51.41,0,0,1-5.13-13.44,72,72,0,0,1,.09-32.78c3.33-13.93,11.42-24.44,23.59-31.88a73.71,73.71,0,0,1,23.17-8.88,117.67,117.67,0,0,1,21.41-2.39,143.07,143.07,0,0,1,42.21,4.76c1.24.34,2.47.67,3.67,1.1,3.23,1.15,3.62,1.4,3.51-2.83a36.2,36.2,0,0,0-1.21-8.53c-2.4-9-8.26-15-16.93-18.17-7.46-2.73-15.27-3.35-23.15-3.08a135.89,135.89,0,0,0-44.88,9.15c-.59.23-1.2.43-1.81.62-1.77.55-2.22.37-2.78-1.48-2-6.74-4-13.49-5.94-20.23-2.07-7-4.16-14.1-6.18-21.17-.89-3.09-.83-3.15,1.94-4.26a184.18,184.18,0,0,1,27.4-8.64,208.23,208.23,0,0,1,51.91-4.79,137.46,137.46,0,0,1,33.64,4.58c10.42,2.92,20.06,7.38,28.49,14.31a62.65,62.65,0,0,1,20.8,32.06,111.08,111.08,0,0,1,3.92,30.34C2957.73,1471.12,2957.64,1487.26,2957.64,1503.41Zm-64.58-8v-4.58c.09-1.91-.81-2.79-2.61-3.4a71.56,71.56,0,0,0-26.4-3.88,37.93,37.93,0,0,0-14,3.08c-7.23,3.24-11.88,8.58-13,16.53-2,13.7,6,22,16.47,24.08a36.25,36.25,0,0,0,24.62-3.62,26.74,26.74,0,0,0,13.37-16.19,34.85,34.85,0,0,0,1.55-12Z" transform="translate(25.48 -1225.51)"/><path class="cls-3" d="M1461.94,1489.38h-58.06c-4.62,0-4.88.31-3.38,4.48q8.26,23,32.6,25.79c9.71,1.1,19.13.13,28.13-3.88,6.52-2.9,12.06-7.2,17.29-12,.59-.53,1.12-1.14,1.71-1.67,1.25-1.12,1.66-1.17,2.89-.19,1.62,1.3,3.2,2.65,4.8,4l26.6,22c.86.72,1.74,1.42,2.55,2.18,1.09,1,1.2,1.71.2,2.89-2.71,3.15-5.33,6.4-8.29,9.3a92.38,92.38,0,0,1-40.63,23.56,114.56,114.56,0,0,1-24.62,3.9,125.92,125.92,0,0,1-25.81-1.18c-21.65-3.29-40.69-11.92-56.21-27.66a88.52,88.52,0,0,1-23.45-42.78c-5.43-23.19-4.35-46.11,5-68.19,11.78-27.94,32.31-46.37,61.64-54.57a97.38,97.38,0,0,1,33.73-3,110.78,110.78,0,0,1,21.27,3.38c24,6.6,41.64,21,53.2,43,5.87,11.16,9.25,23.1,11.22,35.5,1.62,10.16,1.47,20.39,1.41,30.62a15.73,15.73,0,0,1-.24,2.38c-.22,1.51-.67,2-2.13,2.07-1.27.08-2.56,0-3.84,0Zm-31-34.26h30.19c1.83-.09,2.3-.6,2.09-2.34a40.58,40.58,0,0,0-5.15-15.34c-5.5-9.48-13.55-15-24.65-16-10.48-.86-19.12,2.64-25.77,10.81-5,6.08-7.53,13.28-9.27,20.81a1.46,1.46,0,0,0,.82,1.9,1.38,1.38,0,0,0,.6.1c1.27.08,2.55.06,3.83.06Z" transform="translate(25.48 -1225.51)"/><path class="cls-3" d="M2181.12,1493.4h140.54c7.06,0,6.35-.64,6.35,6.48v100.7c0,6.37.57,6-5.93,6H2267.4c-2.28-.11-2.63-.49-2.71-2.94v-44.59c0-1.28,0-2.56-.11-3.83a1.49,1.49,0,0,0-1.52-1.47H2263c-1.11-.07-2.23,0-3.35,0H2100.88c-4.7,0-4.94-.25-4.92,5.11v45.07c-.1,2.31-.45,2.62-2.92,2.71h-53.72c-1.28,0-2.56,0-3.83,0-1.5-.09-2-.62-2.12-2-.08-1.11,0-2.23,0-3.35V1499.05c0-6-.34-5.58,5.83-5.58Z" transform="translate(25.48 -1225.51)"/><path class="cls-3" d="M2645,1491.22h-21.11a37.6,37.6,0,0,1-3.83-.13,1.6,1.6,0,0,1-1.55-1.53c-.06-.63-.08-1.27-.08-1.91v-35.5a1.72,1.72,0,0,1,1.74-1.7h42.4a46.13,46.13,0,0,0,10.49-1,29.64,29.64,0,0,0,5.47-1.7,10.75,10.75,0,0,0,6.49-8.35c1-5.46-.87-9.8-5.68-12.62a29.09,29.09,0,0,0-10.89-3.51,85.15,85.15,0,0,0-16.28-.36,122.64,122.64,0,0,0-52.18,14.75c-5.24,2.83-4.42,3.17-7.35-2.08q-9.72-17.37-19.4-34.76c-.32-.56-.64-1.11-.93-1.68-.74-1.48-.69-2,.63-2.79,3.7-2.21,7.4-4.46,11.21-6.49a146.45,146.45,0,0,1,42.42-14.69,158.56,158.56,0,0,1,24.77-2.73c2.23-.06,4.46-.38,6.69-.37,15.06.06,30,.92,44.67,4.89a89.58,89.58,0,0,1,24.3,10.15c7.15,4.48,13.41,9.93,17.62,17.31,8,14,8.7,28.5,1.68,43.13a35.49,35.49,0,0,1-10.38,12.41,64.39,64.39,0,0,1-13.18,7.81l-2.6,1.19c-.36.17-.51.45-.34.79a1.42,1.42,0,0,0,.55.68c1.33.55,2.69,1,4,1.56a58.44,58.44,0,0,1,15.39,8.68c9.77,7.8,14.46,18.07,15,30.38.66,16.31-6.15,29.09-18.73,39-7.49,5.92-16,9.93-25,12.92-12.38,4.1-25.16,6-38.14,6.75a215.31,215.31,0,0,1-37.82-1.17,163.77,163.77,0,0,1-62.16-19.85c-3.69-2.08-3.65-2.1-1.74-5.79q9.51-18.3,19-36.63c.44-.85.84-1.72,1.36-2.52a1.59,1.59,0,0,1,2.09-.65c.87.38,1.7.87,2.56,1.3a141.5,141.5,0,0,0,47.54,14.19,159.14,159.14,0,0,0,20.12.8,51.94,51.94,0,0,0,14.18-2.16,18,18,0,0,0,7.53-4.06,11.28,11.28,0,0,0,.84-15.94,11.16,11.16,0,0,0-2.6-2.14,23.53,23.53,0,0,0-9-3.2,59.86,59.86,0,0,0-9.07-.73C2658.73,1491.27,2651.85,1491.22,2645,1491.22Z" transform="translate(25.48 -1225.51)"/><path class="cls-3" d="M2179.73,1365.84a5.67,5.67,0,0,0-1.6,2.73q-20.72,52.38-41.46,104.76c-3.68,9.22-1.34,7.52-11.11,7.57-19.2.1-38.39,0-57.59,0-4.75,0-4.81-.1-3-4.4l50.21-116.73q13-30.16,26-60.34c2.39-5.55,1.58-4.88,7.27-4.88h63.82c1,0,1.92.07,2.88,0,2.08-.17,3.13.85,3.92,2.73,5,11.92,10.17,23.8,15.27,35.7q30.19,70.51,60.4,141c.69,1.61,1.4,3.23,2,4.86.48,1.24.08,1.92-1.12,2s-2.24,0-3.36,0h-61.42c-5.5,0-4.86.64-7.08-5q-17.25-43.71-34.56-87.39c-2.59-6.54-5.15-13.08-7.73-19.62A6.76,6.76,0,0,0,2179.73,1365.84Z" transform="translate(25.48 -1225.51)"/><path class="cls-3" d="M1647.39,1570.12c-27.83-.13-52.12-8.69-71.83-28.41-19-19-28.24-42.19-28.7-69a98.13,98.13,0,0,1,6.68-38c8.8-22.28,23.73-39.18,44.94-50.44,17-9,35.11-12.37,54.17-11.71,12.75.45,25.07,2.73,36.82,7.79a84,84,0,0,1,31.84,24c2.24,2.71,4.29,5.58,6.33,8.43.88,1.22.7,2-.37,2.92-.72.63-1.51,1.18-2.28,1.76l-37.61,28.19c-.64.48-1.26,1-1.92,1.43-1.28.85-1.79.77-2.87-.4-2.28-2.46-4.44-5-6.83-7.39a37.13,37.13,0,0,0-17.77-10c-16-3.72-29.81,2.27-38.41,14.29a43.33,43.33,0,0,0-7.93,22.3,52.36,52.36,0,0,0,3,23.07,39,39,0,0,0,13.08,17.9c8.13,6,17.31,7.83,27.24,6.57,10.36-1.31,18.52-6.58,25.55-14,1.53-1.61,2.61-4.26,4.73-4.52,2.37-.3,4.07,2.19,6,3.56q17.16,12.3,34.2,24.72c.65.46,1.29.94,1.93,1.43,2.23,1.71,2.36,2.11.84,4.22a110.37,110.37,0,0,1-14,16.37c-14.08,13.24-30.8,20.83-49.91,23.46C1658.59,1569.54,1652.85,1569.6,1647.39,1570.12Z" transform="translate(25.48 -1225.51)"/><path class="cls-3" d="M774.33,1570.12c-25.75-.16-48.81-7.71-68.09-25.19-18-16.34-28.38-36.75-31.31-60.88s1.69-46.52,14.89-66.9c14.73-22.73,35.77-36.59,62.14-42.29a113.41,113.41,0,0,1,47.62,0c23.34,4.91,41.49,17.66,54.94,37.25.27.4.52.81.76,1.22a1.54,1.54,0,0,1-.45,2.11c-.61.52-1.26,1-1.9,1.47q-19.38,14.53-38.77,29.06l-1.53,1.15a1.67,1.67,0,0,1-2.37,0,1.63,1.63,0,0,1-.17-.2c-1.38-1.55-2.68-3.17-4.09-4.7a44.32,44.32,0,0,0-13.67-10.36c-14.39-6.8-33.56-4.44-45,11.19-6.83,9.31-9.27,19.89-8.6,31.25a48.43,48.43,0,0,0,5.64,20.16c7.66,14.26,22.65,21.52,38.64,18.93a40,40,0,0,0,22.56-11.73c1.91-1.93,3.73-4,5.61-5.91,1.29-1.34,1.59-1.39,3.23-.21l40.4,29.27a12.38,12.38,0,0,1,1.15.87,1.52,1.52,0,0,1,.34,2.12h0c-.91,1.31-1.82,2.63-2.78,3.9a97,97,0,0,1-24,23.18,91,91,0,0,1-36.5,13.73C786.78,1569.56,780.55,1569.71,774.33,1570.12Z" transform="translate(25.48 -1225.51)"/><path class="cls-3" d="M1840.73,1570.12c-28.48-.22-52.79-9.17-72.48-29.13-16.33-16.55-25.33-36.64-27.53-59.75-1.74-18.37,1-36,9-52.76,11.17-23.47,29-39.8,53.24-49.17,13.92-5.38,28.4-7.27,43.29-6.72a103.84,103.84,0,0,1,31.48,5.69c18.27,6.54,32.43,18.27,43.21,34.24,1.22,1.8,1.16,2.19-.61,3.53q-13.59,10.25-27.26,20.43c-4.09,3.07-8.17,6.16-12.28,9.21-3.26,2.43-3.29,3-6-.52a53.3,53.3,0,0,0-7-7.25c-8.56-7.41-18.49-10.7-29.73-9.4-11.76,1.37-20.53,7.59-26.62,17.58-5.61,9.2-7.42,19.32-6.36,30,.74,7.57,2.8,14.78,7.13,21.14,8.89,13.06,21.27,18.26,36.85,16.16,10.92-1.47,19.18-7.47,26.35-15.35.43-.48.8-1,1.22-1.48,2-2.28,2.08-2.32,4.65-.47q19.86,14.33,39.64,28.69c.26.18.52.37.77.57,1.28,1.06,1.42,1.55.54,2.82-13,18.79-29.88,32.29-52.28,38.18a100.55,100.55,0,0,1-24.64,3.47C1843.57,1569.8,1841.82,1570,1840.73,1570.12Z" transform="translate(25.48 -1225.51)"/><path class="cls-4" d="M3037.19,1302.6H3054a3,3,0,0,1,3.29,2.13,35.68,35.68,0,0,0,2,4.35,23.92,23.92,0,0,0,14.33,12,43.24,43.24,0,0,0,24.13.43,24,24,0,0,0,15.7-12.42,42.26,42.26,0,0,0,2.22-4.78,2.4,2.4,0,0,1,2.56-1.67h34.54c2.2.09,2.65.51,2.38,2.52-.34,2.53-.68,5.07-1.24,7.56-5.34,23.76-19.93,38.82-43.29,45.21a90.85,90.85,0,0,1-47.9.16c-24.45-6.51-39-22.6-44.16-47.3-.32-1.57-.57-3.15-.81-4.73-.5-3.2-.38-3.35,2.66-3.42h16.79Z" transform="translate(25.48 -1225.51)"/><path class="cls-5" d="M327.18,1563.35a167.83,167.83,0,0,0,33.06-94.46,197.81,197.81,0,0,0-2.75-40.59A185.79,185.79,0,0,0,345,1384.66c-9.05-20.89-22-39-39.71-53.33-28.5-23.14-61.47-34.82-97.88-37.14-20.37-1.3-40.54.68-60.57,4.53a187.59,187.59,0,0,0-83.47,38.82c-1.11.89-2.38,1.65-3,3.08a12,12,0,0,0,2.15,3.69l39.15,56.3a27.57,27.57,0,0,0,1.67,2.34,1.59,1.59,0,0,0,2.16.37c1.35-.84,2.68-1.72,4-2.61,4.52-3,8.93-6.21,13.58-9,26.8-16.19,55.6-23,86.81-18a76.68,76.68,0,0,1,24.46,8.09A65.37,65.37,0,0,1,261.22,1409a54.45,54.45,0,0,0,22.9,22.51c15.93,8.51,31.36,17.92,47,27,.78.45,1.85.69,2.08,2-.94,1.21-2.47,1.74-3.8,2.53-17.78,10.45-35.51,21-53.37,31.29a31.68,31.68,0,0,0-12.57,13.35,70.61,70.61,0,0,1-40.73,35.14,109.21,109.21,0,0,1-53.47,4.28,113.84,113.84,0,0,1-36.89-13c-7.43-4.08-14.54-8.69-21.72-13.18-2.3-1.43-4.61-2.84-6.79-4.19-1.84.8-2.51,2.34-3.43,3.6q-20.1,27.78-40.16,55.59c-.65.91-1.29,1.83-2,2.73a1.38,1.38,0,0,0,.11,2,1.24,1.24,0,0,0,.18.14c2.15,1.67,4.34,3.27,6.5,4.92a206.59,206.59,0,0,0,30.26,19.36c26.72,13.86,55.19,20.78,85.2,21.75a231.48,231.48,0,0,0,31.59-1.44,201.78,201.78,0,0,0,32.62-6c28.14-7.67,52.36-21.85,72.12-43.43" transform="translate(25.48 -1225.51)"/><path class="cls-5" d="M302.32,1460.3,210.73,1513c-.54.31-1.08.73-1.79.43-.82-.74-.53-1.74-.54-2.64v-12.94c0-1.12,0-2.24-.11-3.35a1.57,1.57,0,0,0-1.54-1.53c-1.44-.08-2.88-.08-4.31-.08h-93c-7,0-6.15.7-6.16-6.1v-54.16a48.35,48.35,0,0,1,.34-5.24,1.8,1.8,0,0,1,1.88-1.72h4.36q42.92,0,85.83-.05c4.08,0,8.23.75,12.27-.59,1-3.92.22-7.91.45-11.87.1-1.59,0-3.19.09-4.79a1.13,1.13,0,0,1,1.11-1.13,1.19,1.19,0,0,1,.53.13c.86.4,1.71.85,2.54,1.33l86.43,49.66A34.14,34.14,0,0,1,302.32,1460.3Z" transform="translate(25.48 -1225.51)"/><path class="cls-1" d="M522.89,1661.42v-39.9h16.8V1695h-12.6l-28.35-39.9V1695h-16.8v-73.5h12.6Zm54.28-10.81a19.06,19.06,0,0,1-26,0,18.15,18.15,0,0,1,0-25.31,18.65,18.65,0,0,1,25.94,0,18,18,0,0,1,.1,25.31Zm4.1,25.09H547.46V1661h33.81Zm-12-37.8a5.2,5.2,0,0,0-1.42-3.78,5.45,5.45,0,0,0-7.45,0,5.2,5.2,0,0,0-1.42,3.78,4.24,4.24,0,0,0,2.41,4.62,5.8,5.8,0,0,0,5.46,0A4.25,4.25,0,0,0,569.3,1637.9Z" transform="translate(25.48 -1225.51)"/><path class="cls-1" d="M612.77,1628.45l19.21-6.93h14.7V1695h-16.8v-55.75l-13,3.57Z" transform="translate(25.48 -1225.51)"/><path class="cls-1" d="M725.22,1668.14a12.58,12.58,0,0,1,7,11.87,13.73,13.73,0,0,1-4.73,10.92q-4.72,4.1-13.12,4.09H686.06v-52.5h26.25q8.4,0,13.12,4.1a13.73,13.73,0,0,1,4.73,10.92Q730.16,1664.47,725.22,1668.14Zm-14.59-13h-9.87v7.35h9.87q4.62,0,4.62-3.57Q715.25,1655.12,710.63,1655.12ZM700.76,1682h11.55q4.62,0,4.62-3.88,0-3.67-4.62-3.68H700.76Z" transform="translate(25.48 -1225.51)"/><path class="cls-1" d="M766.91,1621.52h27.82a24.8,24.8,0,0,1,18.27,7.35,25.09,25.09,0,0,1,0,35.7,24.8,24.8,0,0,1-18.27,7.35h-11V1695h-16.8Zm16.8,34.65h11a8.35,8.35,0,0,0,6.41-2.73,10.22,10.22,0,0,0,0-13.44,8.35,8.35,0,0,0-6.41-2.73h-11Z" transform="translate(25.48 -1225.51)"/><path class="cls-1" d="M870.12,1688.51a28,28,0,1,1,8.09-19.74A26.81,26.81,0,0,1,870.12,1688.51Zm-31.81-19.74a12.09,12.09,0,0,0,3.46,8.93,12.44,12.44,0,0,0,17.22,0,13.21,13.21,0,0,0,0-17.85,12.42,12.42,0,0,0-17.22,0A12.06,12.06,0,0,0,838.31,1668.77Z" transform="translate(25.48 -1225.51)"/><path class="cls-1" d="M912.33,1696.49a27.72,27.72,0,1,1,0-55.44,27.38,27.38,0,0,1,13.86,3.68,25.92,25.92,0,0,1,9.87,9.76l-13.75,8q-2.84-5.88-10.19-5.88a11.44,11.44,0,0,0-8.5,3.41,13.13,13.13,0,0,0,0,17.54,11.44,11.44,0,0,0,8.5,3.41q7.46,0,10.19-5.88l13.75,7.88a25.28,25.28,0,0,1-9.81,9.92A27.69,27.69,0,0,1,912.33,1696.49Z" transform="translate(25.48 -1225.51)"/><path class="cls-1" d="M966.51,1696.49a27.72,27.72,0,1,1,0-55.44,27.38,27.38,0,0,1,13.86,3.68,25.92,25.92,0,0,1,9.87,9.76l-13.75,8q-2.84-5.88-10.19-5.88a11.44,11.44,0,0,0-8.5,3.41,13.13,13.13,0,0,0,0,17.54,11.44,11.44,0,0,0,8.5,3.41q7.46,0,10.19-5.88l13.75,7.88a25.24,25.24,0,0,1-9.82,9.92A27.62,27.62,0,0,1,966.51,1696.49Z" transform="translate(25.48 -1225.51)"/><path class="cls-1" d="M1012.4,1668.77l22.47-26.25h11.55V1695h-15.33v-26.25L1008.62,1695H997.07v-52.5h15.33Z" transform="translate(25.48 -1225.51)"/><path class="cls-1" d="M1073.29,1668.77l22.47-26.25h11.55V1695H1092v-26.25L1069.51,1695H1058v-52.5h15.33Z" transform="translate(25.48 -1225.51)"/><path class="cls-1" d="M1183.23,1695.65V1716H1167.9v-20.37q-12-1.89-18.69-9.24a26.51,26.51,0,0,1,0-35.28q6.72-7.35,18.69-9.24v-20.37h15.33v20.37q11.87,1.89,18.58,9.24a26.19,26.19,0,0,1,0,35.28Q1195.09,1693.76,1183.23,1695.65Zm-15.33-15v-23.73q-9.87,2.63-9.87,11.86T1167.9,1680.64Zm15.33-23.73v23.73q9.87-2.62,9.87-11.87T1183.23,1656.91Z" transform="translate(25.48 -1225.51)"/><path class="cls-1" d="M1268.91,1675.07h-37.28q2.63,7.35,12.6,7.35,6.4,0,10.08-4l12.6,7.25q-7.67,10.82-22.89,10.81-13.12,0-21.21-7.87-7.87-7.87-7.87-19.85a27.19,27.19,0,0,1,7.77-19.74q7.88-8,20.16-8a25.07,25.07,0,0,1,19,8q7.67,7.77,7.67,19.74A30,30,0,0,1,1268.91,1675.07Zm-37.59-11.76h22.57q-2.31-8.3-11.13-8.29Q1233.63,1655,1231.32,1663.31Z" transform="translate(25.48 -1225.51)"/><path class="cls-1" d="M1324.66,1642.52v37.8h6.83v28.77h-15.33V1695H1287v14.07h-15.33v-28.77h6.51q4.2-6.4,4.2-18.16v-19.64Zm-30,37.8h14.7v-23.73h-11.65v5.57Q1297.68,1673,1294.63,1680.32Z" transform="translate(25.48 -1225.51)"/><path class="cls-1" d="M1388.61,1675.07h-37.28q2.63,7.35,12.6,7.35,6.4,0,10.08-4l12.6,7.25q-7.66,10.82-22.89,10.81-13.12,0-21.21-7.87-7.87-7.87-7.87-19.85a27.19,27.19,0,0,1,7.77-19.74q7.88-8,20.16-8a25.07,25.07,0,0,1,19,8q7.67,7.77,7.67,19.74A30,30,0,0,1,1388.61,1675.07ZM1351,1663.31h22.57q-2.31-8.3-11.13-8.29Q1353.32,1655,1351,1663.31Z" transform="translate(25.48 -1225.51)"/><path class="cls-1" d="M1429.56,1641.05q10.28,0,17.74,8.09a27.89,27.89,0,0,1,7.35,19.63q0,11.76-7.35,19.74a23.27,23.27,0,0,1-17.74,8q-10.18,0-15.65-6.4V1716h-15.75v-73.5h15.75v4.94Q1419.37,1641.06,1429.56,1641.05Zm-12.18,37.07a12.41,12.41,0,0,0,9,3.46,12.09,12.09,0,0,0,8.93-3.46,14,14,0,0,0,0-18.69,12.1,12.1,0,0,0-8.93-3.47,12.42,12.42,0,0,0-9,3.47q-3.48,3.46-3.47,9.34T1417.38,1678.12Z" transform="translate(25.48 -1225.51)"/><path class="cls-1" d="M1501.69,1647.46v-4.94h15.75V1695h-15.75v-4.93q-5.46,6.4-15.65,6.4a23.25,23.25,0,0,1-17.74-8q-7.35-8-7.35-19.74a27.89,27.89,0,0,1,7.35-19.63q7.46-8.09,17.74-8.09T1501.69,1647.46Zm-25,21.31q0,5.88,3.46,9.35a13.51,13.51,0,0,0,18.06,0,14.32,14.32,0,0,0,0-18.69,13.48,13.48,0,0,0-18.06,0Q1476.69,1662.9,1476.7,1668.77Z" transform="translate(25.48 -1225.51)"/><path class="cls-1" d="M1531.82,1642.52h42.84V1695h-15.75v-37.38h-11.34v15.65q0,12-5.93,17.53t-17.38,4.2v-14.7q3.67,1,5.62-1t1.94-7Z" transform="translate(25.48 -1225.51)"/><path class="cls-1" d="M1602,1658.27h8.82q9.45,0,15,5t5.56,13.34q0,8.3-5.56,13.33t-15,5h-24.57v-52.5H1602Zm0,23.1h8.93a4.1,4.1,0,0,0,4.46-2.2,5.19,5.19,0,0,0,0-5,4.11,4.11,0,0,0-4.46-2.21H1602Z" transform="translate(25.48 -1225.51)"/><path class="cls-1" d="M1672.84,1661.42v-18.9h15.75V1695h-15.75v-18.9H1655V1695h-15.75v-52.5H1655v18.9Z" transform="translate(25.48 -1225.51)"/><path class="cls-1" d="M1738.25,1647.46v-4.94H1754V1695h-15.75v-4.93q-5.46,6.4-15.65,6.4a23.25,23.25,0,0,1-17.74-8q-7.35-8-7.35-19.74a27.89,27.89,0,0,1,7.35-19.63q7.46-8.09,17.74-8.09T1738.25,1647.46Zm-25,21.31q0,5.88,3.46,9.35a13.51,13.51,0,0,0,18.06,0,14.32,14.32,0,0,0,0-18.69,13.48,13.48,0,0,0-18.06,0Q1713.26,1662.9,1713.26,1668.77Z" transform="translate(25.48 -1225.51)"/><path class="cls-1" d="M1783.5,1642.52h25.62V1695h-15.33V1679.9h-3.25L1779.72,1695h-17.85l12.29-17.32a18.57,18.57,0,0,1-4.94-29.51Q1774.47,1642.52,1783.5,1642.52Zm10.29,13.86h-8.92a5.66,5.66,0,0,0-4,1.42,5.1,5.1,0,0,0-1.53,3.94,4.8,4.8,0,0,0,1.53,3.78,5.81,5.81,0,0,0,4,1.36h8.92Z" transform="translate(25.48 -1225.51)"/><path class="cls-1" d="M1872.12,1696.49a27.72,27.72,0,1,1,0-55.44,27.38,27.38,0,0,1,13.86,3.68,25.92,25.92,0,0,1,9.87,9.76l-13.75,8q-2.83-5.88-10.19-5.88a11.44,11.44,0,0,0-8.5,3.41,13.13,13.13,0,0,0,0,17.54,11.44,11.44,0,0,0,8.5,3.41q7.46,0,10.19-5.88l13.75,7.88a25.28,25.28,0,0,1-9.81,9.92A27.69,27.69,0,0,1,1872.12,1696.49Z" transform="translate(25.48 -1225.51)"/><path class="cls-1" d="M1952.45,1675.07h-37.28q2.63,7.35,12.6,7.35,6.4,0,10.08-4l12.6,7.25q-7.67,10.82-22.89,10.81-13.12,0-21.21-7.87-7.87-7.87-7.87-19.85a27.19,27.19,0,0,1,7.77-19.74q7.88-8,20.16-8a25.07,25.07,0,0,1,19,8q7.66,7.77,7.67,19.74A30,30,0,0,1,1952.45,1675.07Zm-37.59-11.76h22.57q-2.31-8.3-11.13-8.29Q1917.17,1655,1914.86,1663.31Z" transform="translate(25.48 -1225.51)"/><path class="cls-1" d="M1955.18,1642.52h47.25v15.12h-15.65V1695H1971v-37.38h-15.85Z" transform="translate(25.48 -1225.51)"/><path class="cls-1" d="M2025,1658.27h8.82q9.45,0,15,5t5.57,13.34q0,8.3-5.57,13.33t-15,5h-24.57v-52.5H2025Zm0,23.1h8.92a4.12,4.12,0,0,0,4.47-2.2,5.19,5.19,0,0,0,0-5,4.12,4.12,0,0,0-4.47-2.21H2025Z" transform="translate(25.48 -1225.51)"/><path class="cls-1" d="M2113.72,1696.49a27.72,27.72,0,1,1,0-55.44,27.38,27.38,0,0,1,13.86,3.68,25.92,25.92,0,0,1,9.87,9.76l-13.75,8q-2.84-5.88-10.19-5.88a11.44,11.44,0,0,0-8.5,3.41,13.13,13.13,0,0,0,0,17.54,11.44,11.44,0,0,0,8.5,3.41q7.45,0,10.19-5.88l13.75,7.88a25.28,25.28,0,0,1-9.81,9.92A27.69,27.69,0,0,1,2113.72,1696.49Z" transform="translate(25.48 -1225.51)"/><path class="cls-1" d="M2139,1642.52h47.25v15.12h-15.65V1695h-15.75v-37.38H2139Z" transform="translate(25.48 -1225.51)"/><path class="cls-1" d="M2217.36,1674.76l9.87-32.24H2244l-18,50.93q-8.3,23.73-29.92,22.57v-14.7q5.35,0,8.19-1.57a11.34,11.34,0,0,0,4.62-5.67l-20.58-51.56h16.8Z" transform="translate(25.48 -1225.51)"/><path class="cls-1" d="M2295,1642.52v37.8h6.83v28.77h-15.33V1695h-29.19v14.07h-15.33v-28.77h6.51q4.2-6.4,4.2-18.16v-19.64Zm-30,37.8h14.7v-23.73H2268v5.57Q2268,1673,2264.92,1680.32Z" transform="translate(25.48 -1225.51)"/><path class="cls-1" d="M2325,1668.77l22.47-26.25H2359V1695h-15.33v-26.25L2321.2,1695h-11.55v-52.5H2325Z" transform="translate(25.48 -1225.51)"/><path class="cls-1" d="M2385.88,1668.77l22.47-26.25h11.55V1695h-15.33v-26.25L2382.1,1695h-11.55v-52.5h15.33Zm25.09-32.44h-31.5v-13.65H2411Z" transform="translate(25.48 -1225.51)"/><path class="cls-1" d="M2506,1642.52v37.8h6.82v28.77h-15.33V1695H2468.3v14.07H2453v-28.77h6.51q4.2-6.4,4.2-18.16v-19.64Zm-30,37.8h14.7v-23.73H2479v5.57Q2479,1673,2476,1680.32Z" transform="translate(25.48 -1225.51)"/><path class="cls-1" d="M2536,1668.77l22.47-26.25h11.55V1695h-15.33v-26.25L2532.25,1695H2520.7v-52.5H2536Z" transform="translate(25.48 -1225.51)"/><path class="cls-1" d="M2613.52,1668.35q7.65,4.1,7.66,12.39a13.56,13.56,0,0,1-5.83,11.39q-5.82,4.36-15.9,4.36-16.07,0-22-12.49l12.7-7.56q2.31,6.4,9.56,6.4,6.2,0,6.19-4.09,0-3.68-4.93-3.68h-7.35v-13.23h5.67q4.94,0,4.93-3.57,0-3.78-4.93-3.78-6,0-8.61,6.09l-12.71-7.24q6.51-12.28,21-12.29,9.14,0,14.7,4.62a13.91,13.91,0,0,1,5.46,11.13Q2619.08,1664.36,2613.52,1668.35Z" transform="translate(25.48 -1225.51)"/><path class="cls-1" d="M2667.17,1647.46v-4.94h15.75V1695h-15.75v-4.93q-5.46,6.4-15.64,6.4a23.27,23.27,0,0,1-17.75-8q-7.35-8-7.35-19.74a27.89,27.89,0,0,1,7.35-19.63q7.45-8.09,17.75-8.09T2667.17,1647.46Zm-25,21.31q0,5.88,3.47,9.35a13.51,13.51,0,0,0,18.06,0q3.47-3.46,3.46-9.35t-3.46-9.34a13.48,13.48,0,0,0-18.06,0Q2642.17,1662.9,2642.18,1668.77Z" transform="translate(25.48 -1225.51)"/><path class="cls-1" d="M2709.8,1668.77l22.47-26.25h11.55V1695h-15.33v-26.25L2706,1695h-11.55v-52.5h15.33Zm25.09-32.44h-31.5v-13.65h31.5Z" transform="translate(25.48 -1225.51)"/><path class="cls-1" d="M2789,1661.42v-18.9h15.75V1695H2789v-18.9h-17.85V1695h-15.75v-52.5h15.75v18.9Z" transform="translate(25.48 -1225.51)"/><path class="cls-1" d="M2854.38,1647.46v-4.94h15.75V1695h-15.75v-4.93q-5.46,6.4-15.64,6.4a23.27,23.27,0,0,1-17.75-8q-7.35-8-7.35-19.74a27.89,27.89,0,0,1,7.35-19.63q7.46-8.09,17.75-8.09T2854.38,1647.46Zm-25,21.31a12.64,12.64,0,0,0,3.47,9.35,13.51,13.51,0,0,0,18.06,0q3.47-3.46,3.46-9.35t-3.46-9.34a13.48,13.48,0,0,0-18.06,0A12.62,12.62,0,0,0,2829.39,1668.77Z" transform="translate(25.48 -1225.51)"/><path class="cls-1" d="M2923.26,1668.77l22.47-26.25h11.55V1695H2942v-26.25L2919.48,1695h-11.55v-52.5h15.33Z" transform="translate(25.48 -1225.51)"/><path class="cls-1" d="M3026.47,1641.05q10.29,0,17.75,8.09a27.89,27.89,0,0,1,7.35,19.63q0,11.76-7.35,19.74a23.27,23.27,0,0,1-17.75,8q-10.18,0-15.64-6.4V1716h-15.75v-73.5h15.75v4.94Q3016.29,1641.06,3026.47,1641.05Zm-12.18,37.07a12.43,12.43,0,0,0,9,3.46,12.09,12.09,0,0,0,8.93-3.46,14,14,0,0,0,0-18.69,12.1,12.1,0,0,0-8.93-3.47,12.44,12.44,0,0,0-9,3.47q-3.47,3.46-3.46,9.34T3014.29,1678.12Z" transform="translate(25.48 -1225.51)"/><path class="cls-1" d="M3111.84,1675.07h-37.28q2.63,7.35,12.6,7.35,6.4,0,10.08-4l12.6,7.25q-7.66,10.82-22.89,10.81-13.12,0-21.21-7.87-7.87-7.87-7.87-19.85a27.19,27.19,0,0,1,7.77-19.74q7.88-8,20.16-8a25.07,25.07,0,0,1,19,8q7.66,7.77,7.67,19.74A30,30,0,0,1,3111.84,1675.07Zm-37.59-11.76h22.57q-2.31-8.3-11.13-8.29Q3076.56,1655,3074.25,1663.31Z" transform="translate(25.48 -1225.51)"/><path class="cls-1" d="M3161.92,1642.52H3177V1695h-15.12v-27.09l-11.76,18.27h-1.89l-11.76-18.27V1695h-15.12v-52.5h15.12l12.71,19.85Z" transform="translate(25.48 -1225.51)"/><path class="cls-1" d="M3233.53,1688.51a28,28,0,1,1,8.09-19.74A26.81,26.81,0,0,1,3233.53,1688.51Zm-31.81-19.74a12.09,12.09,0,0,0,3.46,8.93,12.44,12.44,0,0,0,17.22,0,13.21,13.21,0,0,0,0-17.85,12.42,12.42,0,0,0-17.22,0A12.06,12.06,0,0,0,3201.72,1668.77Z" transform="translate(25.48 -1225.51)"/><path class="cls-1" d="M3284.14,1661.42v-18.9h15.75V1695h-15.75v-18.9h-17.85V1695h-15.75v-52.5h15.75v18.9Z" transform="translate(25.48 -1225.51)"/><path class="cls-1" d="M3306.71,1642.52H3354v15.12h-15.64V1695h-15.75v-37.38h-15.86Z" transform="translate(25.48 -1225.51)"/><path class="cls-1" d="M3396.8,1647.46v-4.94h15.75V1695H3396.8v-4.93q-5.46,6.4-15.64,6.4a23.27,23.27,0,0,1-17.75-8q-7.35-8-7.35-19.74a27.89,27.89,0,0,1,7.35-19.63q7.46-8.09,17.75-8.09T3396.8,1647.46Zm-25,21.31a12.64,12.64,0,0,0,3.47,9.35,13.51,13.51,0,0,0,18.06,0q3.47-3.46,3.46-9.35t-3.46-9.34a13.48,13.48,0,0,0-18.06,0A12.62,12.62,0,0,0,3371.81,1668.77Z" transform="translate(25.48 -1225.51)"/></svg>