<svg id="Слой_1" data-name="Слой 1" xmlns="http://www.w3.org/2000/svg" viewBox="0 0 607.3 555"><defs><style>.cls-1{fill:none;stroke:#fff;stroke-miterlimit:10;stroke-width:60px;}</style></defs><path class="cls-1" d="M430.64,479.3l-18.06-14.58a28,28,0,0,0-2.5-1.76c-2.31-1.48-7.45-6.3.95-16.79,8.69-10.84,21.22-27.45,25.16-32.7a28.64,28.64,0,0,1,2.21-2.6c4.13-4.39,18.83-24-10.18-57.46-25.7-29.6-55.83-65-68.07-79.33-9.54-11.2-26.72-14.45-40.09-7.25l-1.21.67c-22.62,12.92-61.91,40.43-83.4,75.25C218.26,372,225,395,266.15,451.12S397.53,621.83,492.69,682.47s145.5,78,176.19,75.24,89.64-55,98.85-69.62,17-34.85-45.43-73.56C661.61,576.9,648,564,630.21,565.11s-66.31,35.94-75.52,32.57C546,594.51,444.88,493.32,433,481.45A30.66,30.66,0,0,0,430.64,479.3Z" transform="translate(-196.63 -233)"/></svg>